# xmcd
#
# Track frame offsets:
#	150
#	18240
#	40902
#	57515
#	67957
#	86512
#	112125
#	128920
#	145532
#	163347
#	181635
#	198287
#	213012
#	232455
#	251222
#	270100
#
# Disc length: 3770 seconds
#
# Revision: 3
# Processed by: cddbd v1.5.2PL0 Copyright (c) Steve Scherf et al.
# Submitted via: audiograbber 1.83.01
#
DISCID=e00eb810
DTITLE=Thievery Corporation - The Cosmic Game
DYEAR=2005
DGENRE=Lounge
TTITLE0=Marching The Hate Machines (Into The Sun) [feat. The Flaming Lips]
TTITLE1=Warning Shots [feat. Sleepy Wonder and Gunjan]
TTITLE2=Revolution Solution [feat. Perry Farrell]
TTITLE3=The Cosmic Game
TTITLE4=Satyam Shivam Sundaram [feat. Gunjan]
TTITLE5=Amerimacka [feat. Notch]
TTITLE6=Ambicion Eterna [feat. Verny Varela]
TTITLE7=Pela Janela [feat. Gigi Rezende]
TTITLE8=Sol Tapado [feat. Patrick De Santos]
TTITLE9=The Heart's A Lonely Hunter [feat. David Byrne]
TTITLE10=Holographic Universe
TTITLE11=Doors Of Perception [feat. Gunjan]
TTITLE12=Wires and Watchtowers [feat. Sista Pat]
TTITLE13=The Supreme Illusion [feat. Gunjan]
TTITLE14=The Time We Lost Our Way [feat. Loulou]
TTITLE15=A Gentle Dissolve
EXTD=
EXTT0=
EXTT1=
EXTT2=
EXTT3=
EXTT4=
EXTT5=
EXTT6=
EXTT7=
EXTT8=
EXTT9=
EXTT10=
EXTT11=
EXTT12=
EXTT13=
EXTT14=
EXTT15=
PLAYORDER=
